<svg width="94" height="25" viewBox="0 0 94 25" fill="none" xmlns="http://www.w3.org/2000/svg">
<path d="M0 5C0 2.23858 2.23858 0 5 0H26V25H5C2.23858 25 0 22.7614 0 20V5Z" fill="#F3BA00"/>
<line x1="6.75" y1="12.25" x2="19.25" y2="12.25" stroke="white" stroke-width="3.5" stroke-linecap="round"/>
<mask id="path-3-inside-1_227_448" fill="white">
<path d="M26 0H67V25H26V0Z"/>
</mask>
<path d="M26 0H67V25H26V0Z" fill="white"/>
<path d="M26 1H67V-1H26V1ZM67 24H26V26H67V24Z" fill="#F3BA00" mask="url(#path-3-inside-1_227_448)"/>
<path d="M46.625 7.29932V18H44.8599V9.39404L42.2451 10.2803V8.82275L46.4126 7.29932H46.625Z" fill="black"/>
<path d="M67 0H89C91.7614 0 94 2.23858 94 5V20C94 22.7614 91.7614 25 89 25H67V0Z" fill="#F3BA00"/>
<path d="M80.6216 12.7451V19.6078M73.8108 12.7451H80.6216H73.8108ZM87.4324 12.7451H80.6216H87.4324ZM80.6216 12.7451V5.88235V12.7451Z" stroke="white" stroke-width="3.5" stroke-linecap="round" stroke-linejoin="round"/>
</svg>
