<svg width="198" height="225" viewBox="0 0 198 225" fill="none" xmlns="http://www.w3.org/2000/svg">
<g clip-path="url(#clip0_227_1305)">
<path d="M28.426 92.25C28.8034 87.5513 30.9378 83.167 34.4043 79.9703C37.8707 76.7736 42.4149 74.999 47.1317 75H160.247C164.964 74.999 169.508 76.7736 172.975 79.9703C176.441 83.167 178.575 87.5513 178.953 92.25L186.486 186C186.693 188.58 186.363 191.175 185.518 193.621C184.672 196.068 183.329 198.313 181.573 200.215C179.817 202.117 177.685 203.635 175.313 204.674C172.941 205.713 170.379 206.249 167.789 206.25H39.5894C36.9995 206.249 34.4378 205.713 32.0657 204.674C29.6935 203.635 27.5622 202.117 25.8059 200.215C24.0497 198.313 22.7065 196.068 21.861 193.621C21.0155 191.175 20.686 188.58 20.8931 186L28.426 92.25V92.25Z" stroke="#EDEDED" stroke-width="28" stroke-linecap="round" stroke-linejoin="round"/>
<path d="M141.213 103.125V56.25C141.213 46.3044 137.26 36.7661 130.223 29.7335C123.186 22.7009 113.641 18.75 103.689 18.75C93.7375 18.75 84.1932 22.7009 77.1561 29.7335C70.119 36.7661 66.1656 46.3044 66.1656 56.25V103.125" stroke="#EDEDED" stroke-width="28" stroke-linecap="round" stroke-linejoin="round"/>
</g>
<defs>
<clipPath id="clip0_227_1305">
<rect width="197" height="225" fill="white" transform="translate(0.5)"/>
</clipPath>
</defs>
</svg>
